<?xml version="1.0" encoding="UTF-8" standalone="no"?>
<!DOCTYPE svg PUBLIC "-//W3C//DTD SVG 1.1//EN" "http://www.w3.org/Graphics/SVG/1.1/DTD/svg11.dtd">
<svg version="1.1" xmlns="http://www.w3.org/2000/svg" xmlns:xlink="http://www.w3.org/1999/xlink" preserveAspectRatio="xMidYMid meet" viewBox="0 0 3000 3000" width="3000" height="3000"><defs><path d="M2868.41 1501.3L1505.84 1501.3L1846.45 888.14L2187.11 274.98L2527.78 888.14L2868.41 1501.3ZM1820.46 1288.06L1585.48 1462.85L2811.8 1460.28L2581.17 1299.58L2389.23 1460.25L2192.18 1189.05L1998.13 1460.25L1820.46 1288.06Z" id="cwZGCqIxI"></path><path d="M830.9 2717.58L490.24 2104.42L149.63 1491.26L1512.21 1491.26L1171.57 2104.42L830.9 2717.58ZM631.69 1541.1L825.73 1812.23L1022.79 1541.1L1214.72 1701.73L1445.35 1541.07L219.03 1538.49L454.01 1713.24L631.69 1541.1Z" id="bC8foEFJ"></path></defs><g><g><g><g><g><filter id="shadow14696070" x="1430.84" y="199.98" width="1527.57" height="1391.32" filterUnits="userSpaceOnUse" primitiveUnits="userSpaceOnUse"><feFlood></feFlood><feComposite in2="SourceAlpha" operator="in"></feComposite><feGaussianBlur stdDeviation="5"></feGaussianBlur><feOffset dx="15" dy="15" result="afterOffset"></feOffset><feFlood flood-color="#000000" flood-opacity="0.36"></feFlood><feComposite in2="afterOffset" operator="in"></feComposite><feMorphology operator="dilate" radius="5"></feMorphology><feComposite in2="SourceAlpha" operator="out"></feComposite></filter><path d="M2868.41 1501.3L1505.84 1501.3L1846.45 888.14L2187.11 274.98L2527.78 888.14L2868.41 1501.3ZM1820.46 1288.06L1585.48 1462.85L2811.8 1460.28L2581.17 1299.58L2389.23 1460.25L2192.18 1189.05L1998.13 1460.25L1820.46 1288.06Z" id="bdJREcM93" fill="white" fill-opacity="1" filter="url(#shadow14696070)"></path></g><use xlink:href="#cwZGCqIxI" opacity="1" fill="#5cc664" fill-opacity="1"></use></g><g><g><filter id="shadow6735021" x="74.63" y="1416.26" width="1527.57" height="1391.32" filterUnits="userSpaceOnUse" primitiveUnits="userSpaceOnUse"><feFlood></feFlood><feComposite in2="SourceAlpha" operator="in"></feComposite><feGaussianBlur stdDeviation="5"></feGaussianBlur><feOffset dx="15" dy="15" result="afterOffset"></feOffset><feFlood flood-color="#000000" flood-opacity="0.36"></feFlood><feComposite in2="afterOffset" operator="in"></feComposite><feMorphology operator="dilate" radius="5"></feMorphology><feComposite in2="SourceAlpha" operator="out"></feComposite></filter><path d="M830.9 2717.58L490.24 2104.42L149.63 1491.26L1512.21 1491.26L1171.57 2104.42L830.9 2717.58ZM631.69 1541.1L825.73 1812.23L1022.79 1541.1L1214.72 1701.73L1445.35 1541.07L219.03 1538.49L454.01 1713.24L631.69 1541.1Z" id="bDYHwb5R1" fill="white" fill-opacity="1" filter="url(#shadow6735021)"></path></g><use xlink:href="#bC8foEFJ" opacity="1" fill="#5c9ec6" fill-opacity="1"></use></g></g></g></g></svg>